# File created by Blade
# Date/Time:  Fri Jan 16 14:33:41 2015
# Frame Rate: 120.000 fps
#------------------------------------------------------
:FULLY-SPECIFIED
:DEGREES
2757
root 19.699149 35.734359 -23.811201 -171.438510 -5.947243 -178.801743
Spine -13.531429 -9.129424 -2.357173
Head 1.421436 -9.845886 6.783926
LeftShoulder -9.392400 -14.194177 -4.663170
LeftArm -10.380807 21.501978 -74.226514
LeftForeArm 3.638077 -0.000000 8.128483
LeftHand -2.188142 0.000000 0.564893
LeftHandThumb1 -26.253704 0.000000 33.147579
RightShoulder -12.034992 -11.355316 -4.611714
RightArm 20.567314 16.570432 10.666777
RightForeArm -22.694168 0.000000 117.920403
RightHand -4.817396 0.000000 -0.944248
RightHandThumb1 -24.326973 -0.000000 -32.862282
LeftUpLeg -1.859639 7.653375 1.789524
LeftLeg -5.520752 -0.000000 0.000000
LeftFoot -18.559718 24.967092 -14.385009
LeftToeBase 25.290508 -0.000000 -0.000000
RightUpLeg -1.678620 -14.970062 4.932013
RightLeg -4.075457 -0.000000 0.000000
RightFoot -20.286817 -24.300711 16.689043
RightToeBase 22.518422 -0.000000 -0.000000
2758
root 19.697319 35.733233 -23.806349 -171.533582 -5.953156 -178.809703
Spine -13.445917 -9.050722 -2.372936
Head 1.460108 -9.884290 6.648684
LeftShoulder -9.355608 -14.193973 -4.727372
LeftArm -10.256420 21.834124 -74.244169
LeftForeArm 3.557086 0.000000 8.008747
LeftHand -2.091469 -0.000000 0.503759
LeftHandThumb1 -26.253704 0.000000 33.147579
RightShoulder -11.641391 -11.306268 -4.656575
RightArm 21.448391 16.545048 10.876966
RightForeArm -22.845992 -0.000000 117.211682
RightHand -4.821928 -0.000000 -0.828265
RightHandThumb1 -24.326973 -0.000000 -32.862282
LeftUpLeg -1.777099 7.647686 1.788330
LeftLeg -5.507608 -0.000000 0.000000
LeftFoot -18.550870 24.949106 -14.415046
LeftToeBase 25.217517 -0.000000 -0.000000
RightUpLeg -1.591895 -14.973647 4.898256
RightLeg -4.067818 -0.000000 0.000000
RightFoot -20.285228 -24.318992 16.638335
RightToeBase 22.525182 -0.000000 -0.000000
2759
root 19.695803 35.732297 -23.802571 -171.614379 -5.957755 -178.817404
Spine -13.388722 -8.954664 -2.400772
Head 1.508163 -9.950766 6.521129
LeftShoulder -9.311189 -14.122284 -4.788648
LeftArm -10.073379 22.154948 -74.248862
LeftForeArm 3.444052 -0.000000 7.910549
LeftHand -2.113892 -0.000000 0.667167
LeftHandThumb1 -26.253704 0.000000 33.147579
RightShoulder -11.308423 -11.365097 -4.667419
RightArm 22.386350 16.544167 11.042752
RightForeArm -23.175171 -0.000000 116.389132
RightHand -4.719126 0.000000 -1.021533
RightHandThumb1 -24.326973 -0.000000 -32.862282
LeftUpLeg -1.705309 7.652845 1.789212
LeftLeg -5.503295 -0.000000 0.000000
LeftFoot -18.559301 24.962736 -14.330650
LeftToeBase 25.362244 -0.000000 -0.000000
RightUpLeg -1.516301 -14.979171 4.868161
RightLeg -4.063181 -0.000000 0.000000
RightFoot -20.298212 -24.333602 16.634630
RightToeBase 22.497109 -0.000000 -0.000000
2760
root 19.694195 35.732427 -23.798836 -171.713278 -5.957389 -178.825778
Spine -13.301539 -8.782854 -2.458512
Head 1.520675 -10.098366 6.442999
LeftShoulder -9.159309 -14.096205 -4.869844
LeftArm -9.965788 22.360035 -74.246439
LeftForeArm 3.450066 -0.000000 7.849384
LeftHand -2.126720 -0.000000 0.724028
LeftHandThumb1 -26.253704 0.000000 33.147579
RightShoulder -10.982770 -11.301548 -4.662436
RightArm 23.154422 16.512427 11.155721
RightForeArm -23.196422 -0.000000 115.681706
RightHand -4.824121 -0.000000 -0.809672
RightHandThumb1 -24.326973 -0.000000 -32.862282
LeftUpLeg -1.613056 7.643257 1.788102
LeftLeg -5.496234 -0.000000 0.000000
LeftFoot -18.551108 24.960353 -14.391826
LeftToeBase 25.193723 -0.000000 -0.000000
RightUpLeg -1.418293 -14.958125 4.830664
RightLeg -4.063861 -0.000000 0.000000
RightFoot -20.301017 -24.369178 16.615318
RightToeBase 22.544501 -0.000000 -0.000000
2761
root 19.694014 35.731496 -23.795760 -171.820135 -5.963920 -178.832018
Spine -13.206630 -8.661343 -2.491457
Head 1.537815 -10.232324 6.317433
LeftShoulder -9.072001 -14.030885 -4.946895
LeftArm -9.790766 22.607725 -74.225503
LeftForeArm 3.399157 -0.000000 7.772701
LeftHand -2.151905 -0.000000 0.734192
LeftHandThumb1 -26.253704 0.000000 33.147579
RightShoulder -10.613041 -11.193731 -4.692833
RightArm 23.935416 16.412136 11.279363
RightForeArm -23.220919 -0.000000 114.944510
RightHand -4.793752 -0.000000 -0.790040
RightHandThumb1 -24.326973 -0.000000 -32.862282
LeftUpLeg -1.518740 7.662357 1.794836
LeftLeg -5.483565 -0.000000 0.000000
LeftFoot -18.555313 24.949229 -14.327288
LeftToeBase 25.327841 -0.000000 -0.000000
RightUpLeg -1.312310 -14.975147 4.794945
RightLeg -4.061417 -0.000000 0.000000
RightFoot -20.301932 -24.368704 16.580476
RightToeBase 22.530495 -0.000000 -0.000000
2762
root 19.692798 35.731125 -23.791069 -171.898142 -5.967579 -178.836641
Spine -13.144838 -8.521883 -2.525266
Head 1.557015 -10.391801 6.209624
LeftShoulder -8.985603 -13.995425 -5.009502
LeftArm -9.659523 22.825390 -74.226085
LeftForeArm 3.379469 -0.000000 7.719970
LeftHand -2.163578 -0.000000 0.728756
LeftHandThumb1 -26.253704 0.000000 33.147579
RightShoulder -10.193559 -11.081938 -4.759220
RightArm 24.618219 16.251330 11.370797
RightForeArm -23.301869 0.000000 114.184528
RightHand -4.678754 0.000000 -0.918315
RightHandThumb1 -24.326973 -0.000000 -32.862282
LeftUpLeg -1.455260 7.680622 1.792936
LeftLeg -5.470675 -0.000000 0.000000
LeftFoot -18.557347 24.944309 -14.309533
LeftToeBase 25.383793 -0.000000 -0.000000
RightUpLeg -1.243492 -14.963662 4.771362
RightLeg -4.055314 -0.000000 0.000000
RightFoot -20.308460 -24.404486 16.571683
RightToeBase 22.531615 -0.000000 -0.000000
2763
root 19.690972 35.730798 -23.788132 -171.983917 -5.974863 -178.848795
Spine -13.066026 -8.393516 -2.559971
Head 1.556732 -10.498751 6.125993
LeftShoulder -8.951602 -13.946830 -5.064555
LeftArm -9.471755 23.095756 -74.220221
LeftForeArm 3.284933 -0.000000 7.639211
LeftHand -2.181347 -0.000000 0.750097
LeftHandThumb1 -26.253704 0.000000 33.147579
RightShoulder -9.840148 -10.999003 -4.813936
RightArm 25.381200 16.119116 11.498675
RightForeArm -23.415123 0.000000 113.416449
RightHand -4.715917 -0.000000 -0.932888
RightHandThumb1 -24.326973 -0.000000 -32.862282
LeftUpLeg -1.378755 7.694259 1.786052
LeftLeg -5.465030 -0.000000 0.000000
LeftFoot -18.561321 24.947082 -14.302714
LeftToeBase 25.090625 -0.000000 -0.000000
RightUpLeg -1.157348 -14.959258 4.733491
RightLeg -4.055585 -0.000000 0.000000
RightFoot -20.310675 -24.431403 16.535058
RightToeBase 22.545190 -0.000000 -0.000000
